<?xml version="1.0" standalone="no"?>
<!DOCTYPE svg PUBLIC "-//W3C//DTD SVG 1.1//EN" "http://www.w3.org/Graphics/SVG/1.1/DTD/svg11.dtd" >
<svg xmlns="http://www.w3.org/2000/svg">
<metadata></metadata>
<defs>
<font id="phetsarath_otregular" horiz-adv-x="1139" >
<font-face units-per-em="2048" ascent="1638" descent="-410" />
<missing-glyph horiz-adv-x="600" />
<glyph horiz-adv-x="2048" />
<glyph horiz-adv-x="2048" />
<glyph unicode="&#xd;" horiz-adv-x="2048" />
<glyph unicode=" "  horiz-adv-x="600" />
<glyph unicode="&#x09;" horiz-adv-x="600" />
<glyph unicode="&#xa0;" horiz-adv-x="600" />
<glyph unicode="!" horiz-adv-x="569" d="M253 0v213h172v-213h-172zM255 801v692h170v-692l-45 -457h-80z" />
<glyph unicode="&#x22;" horiz-adv-x="727" d="M106 1225v227h190v-227l-55 -275h-80zM434 1225v227h190v-227l-55 -275h-80z" />
<glyph unicode="#" horiz-adv-x="1138" d="M28 391v139h233l64 357h-221v139h248l73 401h156l-74 -401h256l72 401h158l-74 -401h190v-139h-217l-63 -357h215v-139h-240l-80 -431h-155l77 431h-253l-80 -431h-156l78 431h-207zM417 530h256l64 357h-254z" />
<glyph unicode="$" horiz-adv-x="1138" d="M71 426h162q14 -152 43 -201q4 -6 8 -14q72 -98 217 -117v557q-190 58 -258 107q-145 104 -145 299q0 299 286 385q54 16 117 24v111h121v-111q258 -18 354 -209q39 -77 43 -174v-20h-161q-2 158 -119 227q-41 23 -90 31q-13 2 -27 2v-510q205 -63 268 -98 q174 -99 174 -316q0 -213 -139 -338q-22 -20 -49 -36q-100 -59 -254 -72v-211h-121v211q-315 21 -403 260q-33 94 -27 213zM264 1077q0 -184 237 -248v492q-196 -27 -231 -182q-6 -29 -6 -62zM622 94q125 15 188 76q86 82 86 205q0 125 -96 186q-59 37 -178 72v-539z" />
<glyph unicode="%" horiz-adv-x="1820" d="M59 1053q0 166 129 272q96 78 219 78q172 0 277 -135l37 -58q36 -75 36 -161q0 -162 -129 -267q-96 -80 -219 -80q-166 0 -272 129q-78 99 -78 222zM200 1053q0 -109 92 -172q54 -35 117 -35q111 0 172 92q35 51 35 113q0 116 -98 178q-49 31 -111 31q-110 0 -172 -95 l-24 -47q-11 -33 -11 -65zM438 -40l809 1492h135l-809 -1492h-135zM1060 311q0 166 132 271q96 77 217 77q174 0 278 -135q72 -94 72 -217q0 -162 -129 -266q-96 -79 -219 -79q-166 0 -273 128q-78 98 -78 221zM1202 311q0 -112 96 -174q51 -33 113 -33q110 0 172 93 q35 51 35 110q0 117 -99 178l-47 21q-31 10 -63 10q-111 0 -172 -92q-35 -51 -35 -113z" />
<glyph unicode="&#x26;" horiz-adv-x="1366" d="M106 360q0 166 106 275q74 74 226 162q-144 180 -162 278q-4 27 -4 55q0 158 133 254q94 68 217 68q184 0 279 -135l30 -57q19 -43 23 -93q2 -18 2 -37q0 -141 -113 -241q-59 -53 -170 -115l273 -334q65 115 63 244h164q0 -192 -119 -375l250 -309h-223l-127 160 q-100 -99 -158 -133q-115 -74 -270 -74q-238 0 -352 168q-68 100 -68 239zM278 375q0 -133 111 -211q71 -51 157 -51q138 0 277 133q16 16 33 35l-328 409q-193 -123 -234 -225q-16 -41 -16 -90zM440 1133q0 -68 51 -140l92 -110q166 104 197 180q14 31 14 72q0 106 -92 153 q-39 21 -86 21q-123 0 -164 -103q-12 -32 -12 -73z" />
<glyph unicode="'" horiz-adv-x="391" d="M98 1225v227h193v-227l-56 -275h-82z" />
<glyph unicode="(" horiz-adv-x="681" d="M149 530q0 367 190 734q64 125 144 229h112q-253 -410 -278 -879q-2 -43 -2 -84q0 -477 250 -912q14 -27 30 -52h-112q-232 303 -307 696q-27 139 -27 268z" />
<glyph unicode=")" horiz-adv-x="681" d="M77 -434q254 410 279 878q2 43 2 84q0 478 -250 914q-15 26 -31 51h113q231 -303 307 -696q26 -140 26 -269q0 -366 -190 -732q-63 -125 -143 -230h-113z" />
<glyph unicode="*" horiz-adv-x="796" d="M81 1221l39 120l217 -77l-10 229h129l-10 -229l217 77l39 -120l-222 -62l144 -182l-105 -74l-127 191l-129 -191l-102 74l141 182z" />
<glyph unicode="+" horiz-adv-x="1196" d="M102 403v144h424v424h143v-424h424v-144h-424v-423h-143v423h-424z" />
<glyph unicode="," horiz-adv-x="569" d="M178 0v213h215v-245q0 -269 -215 -269v78q88 4 109 68q14 39 14 119v36h-123z" />
<glyph unicode="-" horiz-adv-x="681" d="M94 492v147h487v-147h-487z" />
<glyph unicode="." horiz-adv-x="569" d="M178 0v213h213v-213h-213z" />
<glyph unicode="/" horiz-adv-x="569" d="M-16 -40l485 1533h113l-485 -1533h-113z" />
<glyph unicode="0" horiz-adv-x="1150" d="M100 570q0 304 141 448q111 111 305 122h29q447 0 473 -513q2 -32 2 -67q0 -422 -282 -529q-86 -31 -193 -31q-360 0 -448 336q-27 103 -27 234zM284 568q0 -455 287 -455q242 0 285 300q10 71 10 160q0 445 -291 445t-291 -450z" />
<glyph unicode="1" horiz-adv-x="702" d="M100 812v101q209 21 270 58q62 36 105 149q4 11 8 20h119v-1140h-180v812h-322z" />
<glyph unicode="2" horiz-adv-x="1150" d="M100 0q14 206 114 313q83 89 283 181l183 83q191 89 191 225q0 116 -120 179q-70 35 -159 35q-150 0 -229 -91l-14 -20q-34 -52 -42 -161h-175q6 161 76 248q119 148 390 148q241 0 368 -129l38 -48q46 -70 46 -157q0 -212 -299 -344l-199 -87q-181 -85 -229 -165 q-18 -32 -26 -70h743v-140h-940z" />
<glyph unicode="3" horiz-adv-x="1150" d="M100 357h176q17 -206 227 -231q33 -4 72 -4q208 0 272 122q22 44 22 98q0 202 -294 202l-74 -2h-22v117q226 3 294 51q54 39 54 122q0 132 -140 174q-48 14 -111 14q-155 0 -226 -82l-11 -16q-31 -45 -33 -139h-176q8 327 381 355q30 2 64 2q280 0 385 -146 q48 -68 48 -157q0 -169 -199 -229q186 -51 226 -169q15 -40 15 -94q0 -192 -189 -286q-120 -59 -292 -59q-395 0 -459 287q-6 32 -10 70z" />
<glyph unicode="4" horiz-adv-x="1150" d="M100 273v150l621 717h126v-740h203v-127h-203v-273h-170v273h-577zM249 400h428v499z" />
<glyph unicode="5" horiz-adv-x="1150" d="M100 306h175q62 -184 288 -184q201 0 276 126q32 55 32 129q0 170 -151 235q-68 30 -157 30q-127 0 -217 -67q-20 -16 -41 -36h-161l105 601h727v-135h-586l-55 -309q116 67 260 67q239 0 366 -136q89 -95 89 -232q0 -200 -173 -313q-127 -82 -310 -82q-222 0 -352 104 q-16 15 -30 28q-53 52 -85 174z" />
<glyph unicode="6" horiz-adv-x="1150" d="M100 539q0 288 129 444q114 130 316 154q33 3 68 3q233 0 343 -144q47 -63 63 -144h-177q-37 137 -185 162q-25 4 -56 4q-224 0 -293 -224q-26 -84 -26 -195q117 123 329 123q224 0 349 -129q90 -92 90 -221q0 -185 -166 -291q-125 -81 -304 -81q-480 0 -480 539z M292 369q0 -134 123 -205q73 -42 167 -42q154 0 235 98q50 62 50 141q0 159 -143 217q-59 23 -135 23q-171 0 -252 -103q-45 -55 -45 -129z" />
<glyph unicode="7" horiz-adv-x="1150" d="M100 1000v140h950v-119q-405 -431 -537 -866q-25 -76 -40 -155h-189q101 350 287 626q110 162 296 374h-767z" />
<glyph unicode="8" horiz-adv-x="1150" d="M100 342q0 184 242 275q-145 70 -176 144q-16 36 -16 85q0 154 161 236q111 58 264 58q231 0 349 -119q76 -74 76 -175q0 -106 -90 -170l-64 -41q-17 -9 -40 -18q244 -91 244 -276q0 -174 -171 -270q-126 -71 -304 -71q-248 0 -381 128q-94 90 -94 214zM279 339 q0 -128 132 -186q68 -31 160 -31q182 0 260 101q40 51 40 116q0 128 -135 187q-69 30 -161 30q-178 0 -256 -100q-40 -51 -40 -117zM330 844q0 -109 121 -153q54 -19 124 -19q159 0 220 88q25 37 25 83q0 116 -130 159q-49 16 -115 16q-159 0 -220 -89l-19 -41z" />
<glyph unicode="9" horiz-adv-x="1150" d="M100 768q0 185 165 291q125 81 303 81q482 0 482 -539q0 -288 -132 -444q-106 -126 -302 -152q-41 -5 -81 -5q-231 0 -342 144q-47 63 -62 144h177q36 -137 183 -162q26 -4 57 -4q223 0 292 224q26 84 26 195q-141 -120 -327 -123q-225 0 -350 129q-89 92 -89 221z M281 779q0 -159 144 -217q58 -23 135 -23q167 0 250 101q46 56 46 131q0 136 -123 207q-75 42 -167 42q-154 0 -234 -100l-30 -46l-17 -55q-4 -20 -4 -40z" />
<glyph unicode=":" horiz-adv-x="569" d="M225 0v213h213v-213h-213zM225 860v213h213v-213h-213z" />
<glyph unicode=";" horiz-adv-x="569" d="M225 0v213h215v-245q0 -269 -215 -269v78q88 4 109 68q14 39 14 119v36h-123zM227 860v213h213v-213h-213z" />
<glyph unicode="&#x3c;" horiz-adv-x="1196" d="M92 406v141l1001 424v-162l-806 -330l806 -336v-161z" />
<glyph unicode="=" horiz-adv-x="1196" d="M102 227v144h991v-144h-991zM102 580v143h991v-143h-991z" />
<glyph unicode="&#x3e;" horiz-adv-x="1196" d="M102 -18v161l807 330l-807 336v162l1001 -424v-141z" />
<glyph unicode="?" horiz-adv-x="1138" d="M157 1038q0 216 92 335q93 119 277 140q39 5 80 5q258 0 372 -170l33 -62q31 -74 31 -162q0 -143 -105 -264q-39 -47 -100 -102q-129 -119 -150 -174q-12 -31 -12 -80v-96h-184v112q0 103 57 178q35 45 107 113q14 12 49 43q151 135 153 270q0 144 -125 205l-63 21 q-35 8 -74 8q-168 0 -229 -119q-35 -70 -35 -201h-174zM491 0v213h184v-213h-184z" />
<glyph unicode="@" horiz-adv-x="2078" d="M69 528q0 316 195 582q57 80 129 143q221 201 530 252q76 13 152 13q340 0 591 -207q238 -193 275 -469q6 -43 6 -86q0 -248 -176 -457q-156 -182 -381 -182q-197 0 -225 157q-135 -147 -291 -147q-168 0 -264 141q-70 101 -70 234q0 223 162 395q158 170 364 172 q172 0 250 -178l45 135h170l-184 -573q-25 -72 -25 -103q0 -55 60 -82q20 -8 43 -8q131 0 239 148q105 145 105 323q0 246 -199 428q-203 189 -491 201h-31q-301 0 -533 -209l-69 -70q-203 -231 -203 -522q0 -289 215 -487q221 -205 553 -205q162 0 395 66l58 -137 q-230 -86 -463 -86q-369 0 -637 219q-250 204 -289 505q-6 47 -6 94zM724 500q0 -138 97 -207q49 -35 106 -35q119 0 209 133q68 98 100 271q9 45 11 79q6 111 -84 168q-50 29 -109 29q-135 0 -237 -145q-93 -129 -93 -293z" />
<glyph unicode="A" horiz-adv-x="1366" d="M34 0l532 1493h246l525 -1493h-213l-154 449h-576l-157 -449h-203zM442 608h475l-230 680z" />
<glyph unicode="B" horiz-adv-x="1366" d="M161 0v1493h606q211 0 324 -104q119 -107 119 -275q0 -229 -207 -326q215 -83 258 -247q12 -41 14 -88v-27q0 -180 -115 -301q-116 -125 -325 -125h-674zM351 168h465q133 0 199 72q70 73 70 184q0 178 -146 235q-53 23 -123 23h-465v-514zM351 850h369q148 0 217 53 q82 64 82 185q0 120 -82 184q-69 53 -217 53h-369v-475z" />
<glyph unicode="C" horiz-adv-x="1478" d="M98 729q0 375 209 602q168 187 473 187q487 0 575 -488h-194q-31 154 -109 225q-110 91 -295 95q-262 0 -387 -236q-82 -153 -82 -383q0 -348 195 -510q121 -100 291 -100q223 0 328 158q12 16 20 34q45 86 68 232h196q-67 -592 -614 -592q-289 0 -457 174 q-217 223 -217 602z" />
<glyph unicode="D" horiz-adv-x="1478" d="M182 0v1493h575q334 0 496 -270l45 -88q68 -166 68 -387q0 -429 -238 -623q-149 -125 -371 -125h-575zM372 168h353q356 0 432 371q18 92 18 206q0 504 -344 570q-51 10 -106 10h-353v-1157z" />
<glyph unicode="E" horiz-adv-x="1366" d="M184 0v1493h1034v-168h-844v-477h814v-168h-814v-512h881v-168h-1071z" />
<glyph unicode="F" horiz-adv-x="1251" d="M184 0v1493h1001v-168h-811v-477h713v-168h-713v-680h-190z" />
<glyph unicode="G" horiz-adv-x="1593" d="M90 731q0 361 209 586q29 31 61 57q174 144 447 144q366 0 532 -242q68 -100 92 -236h-194q-43 201 -238 275q-86 35 -194 35q-271 0 -416 -213q-109 -160 -109 -396q0 -258 125 -430q17 -20 33 -39q148 -147 377 -151q233 0 369 164q100 123 100 295v41h-455v167h623 v-796h-121l-47 198q-213 -237 -510 -237q-313 0 -506 233q-178 213 -178 545z" />
<glyph unicode="H" horiz-adv-x="1478" d="M169 0v1493h190v-645h768v645h191v-1493h-191v680h-765v-680h-193z" />
<glyph unicode="I" horiz-adv-x="569" d="M204 0v1493h193v-1493h-193z" />
<glyph unicode="J" horiz-adv-x="1024" d="M34 348v131h195v-96q0 -227 165 -264q27 -6 58 -6q119 0 182 92q47 69 47 237v1051h191v-1120q0 -254 -185 -363q-100 -57 -237 -57q-254 0 -361 176q-55 94 -55 219z" />
<glyph unicode="K" horiz-adv-x="1366" d="M161 0v1493h190v-756l744 756h246l-609 -608l615 -885h-225l-527 766l-244 -244v-522h-190z" />
<glyph unicode="L" horiz-adv-x="1138" d="M163 0v1493h190v-1325h738v-168h-928z" />
<glyph unicode="M" horiz-adv-x="1705" d="M153 0v1493h264l443 -1300l434 1300h264v-1493h-180v1251l-420 -1251h-201l-424 1251v-1251h-180z" />
<glyph unicode="N" horiz-adv-x="1478" d="M155 0v1493h207l780 -1221v1221h180v-1493h-215l-772 1210v-1210h-180z" />
<glyph unicode="O" horiz-adv-x="1593" d="M77 735q0 377 227 596q195 187 492 187q356 0 555 -252l53 -78q115 -197 115 -465q0 -303 -168 -518q-41 -53 -90 -94q-187 -158 -463 -158q-342 0 -543 240q-178 213 -178 542zM267 735q0 -323 195 -493q137 -121 336 -121q264 0 412 205q118 161 118 401 q0 338 -200 508q-136 115 -332 115q-266 0 -414 -209q-115 -164 -115 -406z" />
<glyph unicode="P" horiz-adv-x="1366" d="M186 0v1493h616q330 0 426 -242q35 -84 35 -196q0 -199 -129 -316q-119 -106 -289 -106h-469v-633h-190zM376 801h398q209 0 270 151q21 49 21 111q0 184 -162 242l-70 16q-29 4 -59 4h-398v-524z" />
<glyph unicode="Q" horiz-adv-x="1593" d="M77 735q0 377 227 596q197 187 494 187q340 0 541 -238q180 -213 180 -541q0 -352 -211 -583l192 -158l-96 -118l-215 177q-176 -104 -391 -104q-342 0 -543 240q-178 213 -178 542zM267 735q0 -325 195 -495q137 -119 334 -119q123 0 246 57l-152 127l94 115l183 -150 q161 183 161 467q0 322 -192 492q-139 121 -338 121q-268 0 -416 -209q-115 -164 -115 -406z" />
<glyph unicode="R" horiz-adv-x="1478" d="M190 0v1493h688q348 0 432 -246q23 -67 23 -153q0 -201 -148 -306q-39 -26 -88 -51q127 -55 166 -137q35 -76 37 -252q4 -196 39 -252q18 -26 51 -49v-47h-231q-43 98 -43 244l2 133q0 223 -164 258q-37 8 -82 8h-492v-643h-190zM380 811h461q248 0 285 176q8 35 8 80 q0 135 -78 201q-65 57 -215 57h-461v-514z" />
<glyph unicode="S" horiz-adv-x="1366" d="M98 475h180v-10q0 -86 33 -152q18 -34 45 -67q104 -125 344 -125q182 0 275 63q90 64 104 178q2 15 2 29q0 156 -225 227l-49 15l-371 98q-293 76 -293 348q0 254 213 369q131 70 317 70q361 0 490 -228q57 -100 57 -235h-180q-2 227 -225 286q-66 17 -148 17 q-213 0 -297 -127l-24 -49q-12 -35 -12 -76q0 -115 110 -172q51 -27 135 -49l375 -101q246 -67 303 -266q15 -51 15 -108q0 -172 -119 -301q-23 -23 -45 -41q-150 -115 -420 -115q-346 0 -502 213q-86 117 -88 309z" />
<glyph unicode="T" horiz-adv-x="1251" d="M43 1325v168h1171v-168h-489v-1325h-190v1325h-492z" />
<glyph unicode="U" horiz-adv-x="1478" d="M174 444v1049h190v-1049q0 -239 226 -303q69 -20 155 -20q254 0 347 164q38 69 38 159v1049h191v-1049q0 -266 -213 -399q-148 -92 -363 -92q-338 0 -487 207q-84 119 -84 284z" />
<glyph unicode="V" horiz-adv-x="1366" d="M61 1493h205l438 -1264l414 1264h203l-519 -1493h-204z" />
<glyph unicode="W" horiz-adv-x="1933" d="M45 1493h213l281 -1212l331 1212h205l340 -1212l275 1212h213l-379 -1493h-209l-344 1227l-334 -1227h-209z" />
<glyph unicode="X" horiz-adv-x="1366" d="M45 0l528 766l-495 727h231l383 -586l385 586h228l-504 -727l528 -766h-235l-408 623l-410 -623h-231z" />
<glyph unicode="Y" horiz-adv-x="1366" d="M26 1493h236l438 -727l426 727h227l-561 -907v-586h-191v586z" />
<glyph unicode="Z" horiz-adv-x="1251" d="M57 0v168l897 1157h-840v168h1076v-172l-893 -1153h897v-168h-1137z" />
<glyph unicode="[" horiz-adv-x="569" d="M131 -434v1927h381v-147h-211v-1632h211v-148h-381z" />
<glyph unicode="\" horiz-adv-x="569" d="M-16 1493h113l485 -1533h-113z" />
<glyph unicode="]" horiz-adv-x="569" d="M47 -286h211v1632h-211v147h381v-1927h-381v148z" />
<glyph unicode="^" horiz-adv-x="960" d="M90 674l313 778h150l317 -778h-141l-250 614l-248 -614h-141z" />
<glyph unicode="_" horiz-adv-x="1138" d="M-45 -258h1229v-102h-1229v102z" />
<glyph unicode="`" horiz-adv-x="681" d="M45 1516h231l197 -304h-123z" />
<glyph unicode="a" horiz-adv-x="1138" d="M86 270q0 209 188 287q74 31 267 55q32 4 77 11q150 18 173 77q6 17 6 41v45q0 132 -166 156q-35 4 -74 4q-211 0 -246 -153q-4 -19 -6 -37h-172q6 147 74 223q112 125 356 125q361 0 400 -238q4 -26 4 -55v-631q0 -84 92 -84q18 0 37 4v-128q-72 -19 -117 -19 q-145 0 -172 129q-2 14 -4 29q-178 -156 -365 -158q-225 0 -313 153q-39 72 -39 164zM264 274q0 -133 137 -163q33 -9 74 -9q148 0 254 97q66 59 68 139v192q-66 -30 -234 -53q-18 -2 -41 -6q-217 -31 -250 -141q-8 -25 -8 -56z" />
<glyph unicode="b" horiz-adv-x="1138" d="M110 0v1493h170v-565q117 176 332 176q262 0 383 -221q76 -140 76 -342q0 -330 -187 -488q-117 -100 -280 -100q-220 0 -340 184v-137h-154zM280 528q0 -256 141 -362q68 -53 158 -53q172 0 258 161q55 105 55 248q0 260 -147 369q-76 51 -166 53q-170 0 -250 -172 q-49 -102 -49 -244z" />
<glyph unicode="c" horiz-adv-x="1024" d="M63 518q0 328 188 486q121 100 289 100q217 0 336 -139q8 -11 16 -21q60 -88 72 -231h-172q-27 198 -199 229l-55 4q-192 0 -264 -205q-33 -94 -33 -223q0 -280 162 -373q59 -34 139 -34q219 0 262 258h172q-22 -281 -235 -375q-88 -41 -203 -41q-264 0 -391 215 q-84 143 -84 350z" />
<glyph unicode="d" horiz-adv-x="1138" d="M53 539q0 315 182 469q117 96 279 96q221 0 330 -166v555h170v-1493h-152v141q-119 -169 -295 -186q-22 -2 -47 -2q-266 0 -389 229q-78 146 -78 357zM231 528q0 -249 144 -360q73 -55 170 -55q170 0 249 168q50 102 50 243q0 269 -148 373q-68 47 -154 47 q-174 0 -258 -168q-41 -78 -51 -182q-2 -33 -2 -66z" />
<glyph unicode="e" horiz-adv-x="1138" d="M81 522q0 324 193 482q122 100 299 100q235 0 368 -168q41 -51 66 -115q43 -112 43 -342h-791q2 -147 58 -229q88 -139 258 -139q208 0 280 215h172q-45 -248 -258 -336q-90 -37 -201 -37q-278 0 -407 225q-80 139 -80 344zM263 618h602q2 5 2 13q0 164 -120 256 q-78 59 -177 59q-174 0 -258 -153q-41 -74 -49 -175z" />
<glyph unicode="f" horiz-adv-x="569" d="M36 934v139h143v182q0 181 152 230q45 14 100 14q47 0 97 -10v-141q-39 2 -60 2q-119 0 -119 -109v-168h179v-139h-179v-934h-170v934h-143z" />
<glyph unicode="g" horiz-adv-x="1138" d="M59 518q0 313 174 475q117 111 283 111q200 0 327 -186v155h158v-897q0 -315 -84 -446q-14 -20 -29 -39q-98 -123 -321 -135q-23 -2 -45 -2q-283 0 -385 180q-35 64 -43 144h174q12 -80 65 -123q74 -58 195 -58q166 0 238 101q61 84 61 292v55q-121 -167 -270 -188 l-56 -4q-170 0 -295 131l-12 12q-135 158 -135 422zM237 528q0 -284 160 -381q59 -36 139 -36q182 0 254 188q37 94 37 223q0 307 -168 396q-55 28 -125 28q-180 0 -256 -184q-41 -98 -41 -234z" />
<glyph unicode="h" horiz-adv-x="1138" d="M143 0v1493h170v-567q111 143 246 170q43 8 98 8q225 0 305 -152q33 -61 33 -141v-811h-170v743q0 113 -70 162q-65 49 -151 49q-172 0 -248 -157q-43 -86 -43 -205v-592h-170z" />
<glyph unicode="i" horiz-adv-x="426" d="M135 1278v215h172v-215h-172zM137 0v1073h170v-1073h-170z" />
<glyph unicode="j" horiz-adv-x="433" d="M-36 -294q35 -2 41 -2q106 0 129 65q10 29 10 76v1228h170v-1296q0 -211 -262 -223h-31q-26 0 -57 6v146zM144 1278v215h170v-215h-170z" />
<glyph unicode="k" horiz-adv-x="1024" d="M118 0v1493h170v-875l455 455h219l-373 -371l438 -702h-211l-362 582l-166 -164v-418h-170z" />
<glyph unicode="l" horiz-adv-x="433" d="M139 0v1493h172v-1493h-172z" />
<glyph unicode="m" horiz-adv-x="1651" d="M143 0v1073h158v-151q110 155 262 178q31 4 67 4q183 0 271 -133q10 -15 18 -31q111 133 240 156q41 8 90 8q250 0 301 -201q10 -45 10 -98v-805h-172v739q0 166 -129 205q-33 10 -69 10q-125 0 -201 -110q-51 -76 -51 -170v-674h-172v739q0 179 -146 209q-24 6 -53 6 q-127 0 -203 -114q-49 -74 -49 -166v-674h-172z" />
<glyph unicode="n" horiz-adv-x="1097" d="M143 0v1073h158v-180q110 174 266 203q41 8 90 8q215 0 301 -143q39 -66 39 -150v-811h-170v743q0 144 -121 193q-43 18 -100 18q-172 0 -248 -157q-43 -86 -43 -205v-592h-172z" />
<glyph unicode="o" horiz-adv-x="1097" d="M73 528q0 357 215 500q113 76 268 76q312 0 428 -264q60 -133 60 -320q0 -342 -209 -487q-115 -80 -277 -80q-295 0 -417 244q-68 137 -68 331zM251 528q0 -280 160 -378q63 -39 147 -39q185 0 265 180q43 96 43 231q0 297 -168 391q-62 33 -140 33q-190 0 -268 -188 q-39 -99 -39 -230z" />
<glyph unicode="p" horiz-adv-x="1138" d="M110 -446v1519h158v-162q121 193 342 193q260 0 383 -227q78 -146 78 -359q0 -315 -183 -469q-80 -67 -186 -87q-43 -9 -90 -9q-199 0 -330 160v-559h-172zM282 528q0 -256 141 -362q68 -53 158 -53q172 0 258 166q53 102 53 243q0 260 -145 369q-72 53 -166 53 q-170 0 -250 -172q-49 -102 -49 -244z" />
<glyph unicode="q" horiz-adv-x="1138" d="M53 516q0 330 186 488q117 100 281 100q219 0 342 -174v143h152v-1519h-170v569q-117 -170 -332 -170q-262 0 -383 221q-76 139 -76 342zM231 528q0 -249 144 -360q73 -55 170 -55q167 0 249 166q50 102 50 243q0 269 -146 373q-67 49 -153 49q-173 0 -259 -166 q-55 -104 -55 -250z" />
<glyph unicode="r" horiz-adv-x="730" d="M141 0v1073h158v-194q118 190 237 219q27 6 56 6q22 0 65 -6v-174q-147 -2 -211 -45q-6 -5 -12 -9q-121 -88 -121 -313v-557h-172z" />
<glyph unicode="s" horiz-adv-x="1024" d="M69 319h180q13 -96 49 -137q68 -71 213 -71q172 0 230 96q20 33 20 72q0 94 -110 133l-56 16l-159 39q-244 59 -308 164q-32 57 -32 145q0 191 172 277q100 51 239 51q297 0 369 -207q20 -55 20 -123h-180q-6 172 -215 172q-168 0 -215 -100q-12 -29 -12 -62 q0 -92 135 -137q29 -8 63 -16l164 -39q242 -57 289 -201q14 -43 14 -98q0 -197 -184 -287q-106 -53 -258 -53q-397 0 -426 332q-2 16 -2 34z" />
<glyph unicode="t" horiz-adv-x="569" d="M28 934v139h145v295h170v-295h177v-139h-177v-735q0 -78 45 -90q19 -7 50 -7q51 0 82 9v-143q-80 -15 -140 -15q-182 0 -205 137q-2 14 -2 33v811h-145z" />
<glyph unicode="u" horiz-adv-x="1138" d="M133 246v827h170v-760q0 -143 121 -192q45 -19 100 -19q174 0 252 160q41 86 41 203v608h170v-1073h-154v150q-114 -162 -266 -188q-41 -9 -92 -9q-219 0 -303 143q-39 66 -39 150z" />
<glyph unicode="v" horiz-adv-x="1024" d="M20 1073h193l286 -870l303 870h193l-412 -1073h-186z" />
<glyph unicode="w" horiz-adv-x="1478" d="M12 1073h188l220 -835l204 835h209l211 -835l213 835h193l-316 -1073h-194l-217 842l-207 -842h-193z" />
<glyph unicode="x" horiz-adv-x="1024" d="M34 0l379 547l-359 526h195l258 -389l258 389h193l-361 -518l371 -555h-199l-268 412l-272 -412h-195z" />
<glyph unicode="y" horiz-adv-x="1024" d="M40 1073h182l275 -835l297 835h184l-477 -1298q-45 -117 -117 -170q-70 -51 -160 -51q-63 0 -114 27v153q55 -12 90 -12q92 0 129 82q4 10 8 22l65 170z" />
<glyph unicode="z" horiz-adv-x="1024" d="M63 0v154l641 770h-598v149h801v-151l-637 -772h665v-150h-872z" />
<glyph unicode="{" horiz-adv-x="1000" d="M150 551v99l226 76q75 25 75 274q0 450 349 451h101v-151h-103q-198 0 -198 -299q0 -301 -199 -401q199 -101 200 -400q0 -300 200 -300h100v-150h-101q-349 0 -349 450q0 250 -76 275z" />
<glyph unicode="|" horiz-adv-x="450" d="M150 -100v1400h150v-1400h-150z" />
<glyph unicode="}" horiz-adv-x="1000" d="M100 -100h103q198 0 198 299q0 301 199 401q-200 101 -200 400q0 300 -200 300h-100v150h101q349 0 349 -450q0 -250 76 -275l225 -76v-99l-226 -76q-75 -26 -75 -274q0 -450 -349 -451h-101v151z" />
<glyph unicode="~" horiz-adv-x="1200" d="M150 250v151q0 249 247 249h3q149 0 226 -125l37 -62q37 -63 138 -63q99 0 99 100v150h150v-150q0 -249 -250 -250q-149 0 -224 125l-38 63q-38 62 -138 62q-99 0 -99 -100v-150h-151z" />
<glyph unicode="&#xa1;" horiz-adv-x="681" d="M247 860v213h172v-213h-172zM249 272l45 457h80l45 -457v-691h-170v691z" />
<glyph unicode="&#xa2;" horiz-adv-x="1210" d="M100 423q0 249 216 365q112 59 264 70v137h93v-136q300 -14 393 -180q27 -50 31 -111h-185q-21 130 -172 165q-32 7 -67 9v-623q212 16 252 193h185q-15 -189 -221 -269q-94 -35 -216 -41v-147h-93v149q-284 17 -407 188q-73 97 -73 231zM292 423q0 -210 187 -279 q46 -16 101 -22v618q-288 -36 -288 -317z" />
<glyph unicode="&#xa3;" horiz-adv-x="1210" d="M100 514v84h161q-91 115 -102 165q-4 18 -4 46q0 149 159 245q131 79 314 79q224 0 347 -113q19 -17 34 -37q54 -70 55 -202h-174q-8 234 -269 234q-178 0 -249 -96q-32 -44 -32 -98q0 -58 44 -122l42 -59q7 -6 32 -42h317v-84h-270q30 -65 30 -107q0 -84 -115 -188 q-46 -42 -119 -99q117 60 242 60q69 0 163 -23q108 -25 156 -25q79 0 165 46l83 -100q-112 -85 -260 -85q-87 0 -252 42q-17 5 -38 11q-65 17 -130 17q-106 0 -217 -56l-96 99q203 134 239 230q10 29 10 60q0 57 -48 118h-218z" />
<glyph unicode="&#xa4;" horiz-adv-x="1138" d="M137 1020l115 108l112 -112q90 53 199 53q119 0 201 -57l121 108l116 -119l-112 -112q53 -84 53 -191q0 -102 -60 -198l111 -111l-119 -110l-108 108q-82 -61 -205 -61q-109 0 -193 51l-104 -105l-115 117l99 100q-66 89 -66 209q0 117 66 209zM344 696q0 -112 96 -176 q55 -37 123 -37q113 0 178 92q39 56 39 119q0 119 -98 183q-56 34 -121 34q-117 0 -180 -96l-25 -49q-12 -35 -12 -70z" />
<glyph unicode="&#xa5;" horiz-adv-x="1210" d="M100 1140h161l350 -517l338 517h161l-380 -571h285v-81h-321v-124h321v-83h-321v-281h-167v281h-325v83h325v124h-325v81h286z" />
<glyph unicode="&#xa6;" horiz-adv-x="570" d="M206 360h157v-790h-157v790zM206 701v790h157v-790h-157z" />
<glyph unicode="&#xa7;" horiz-adv-x="1138" d="M88 639q0 172 162 276q24 17 53 31q-90 105 -90 209q0 162 139 262q103 76 240 76q203 0 301 -152q57 -88 57 -211v-57h-172v53q0 146 -112 193q-39 16 -86 16q-111 0 -160 -88l-19 -47q-4 -18 -4 -39q0 -74 88 -137q15 -10 29 -20l299 -193q168 -109 207 -223 q16 -51 16 -119q0 -236 -223 -319q98 -113 106 -211q3 -14 3 -31q0 -174 -146 -274q-102 -70 -237 -70q-205 0 -312 142q-30 41 -47 90q-22 67 -22 176h174q0 -111 37 -160q59 -90 172 -90q131 0 178 96q18 37 18 80q0 102 -112 180l-349 239q-172 119 -186 285q-2 19 -2 37 zM250 672q0 -84 61 -144q27 -24 74 -59l340 -252q149 80 149 209q0 125 -149 229l-330 224q-127 -82 -141 -168q-4 -19 -4 -39z" />
<glyph unicode="&#xa8;" horiz-adv-x="569" d="M4 1426v165h165v-165h-165zM400 1426v165h165v-165h-165z" />
<glyph unicode="&#xa9;" horiz-adv-x="1210" d="M100 555q0 225 136 389q135 161 329 180q20 1 40 1q200 0 345 -154q143 -150 159 -370q1 -22 1 -45q0 -231 -140 -395q-136 -161 -339 -174q-17 -2 -33 -2q-191 0 -335 152q-142 151 -160 364q-3 27 -3 54zM190 555q0 -194 120 -334q126 -141 290 -143q178 0 300 141 q120 139 120 337q0 196 -122 336q-120 139 -293 140q-171 0 -292 -139q-122 -138 -123 -338zM356 550q0 195 106 291q65 60 155 60q159 0 210 -193l9 -38h-94q-26 115 -92 134q-16 4 -37 4q-99 0 -142 -113q-23 -61 -23 -143q0 -142 71 -214q41 -40 94 -40q108 0 138 170 q1 8 2 15h94q-22 -118 -55 -173q-64 -104 -179 -104q-134 0 -205 126q-52 92 -52 218z" />
<glyph unicode="&#xaa;" horiz-adv-x="756" d="M68 856v4v4q0 45 19 77t58 52q41 21 84 37.5t90 30.5h4t3 2h4t5 1t5 3q10 2 19.5 5t19.5 5q8 4 18.5 7t18.5 6q18 6 35.5 12t31.5 14v8v11v5t2 5v7v5v12.5v12.5v7t2 7v6v8q0 17 -1 32t-5 30q-2 16 -7 28.5t-13 22.5t-17.5 17.5t-19.5 11.5l-12 4t-11 4q-6 0 -12 1t-12 1 h-5h-7h-5h-4t-3 -1l-2 -2t-2 -1h-3h-3t-2 -1t-2 -1h-3q-27 -8 -43.5 -22.5t-24.5 -33.5q-8 -18 -12 -36.5t-4 -40.5v-3v-3v-5v-3v-3v-4v-3v-3q-2 0 -5 -1t-5 -1q-4 -2 -6.5 -2h-6.5q-6 -2 -11 -3t-9 -1q-10 -2 -20.5 -3t-20.5 -3q-4 -2 -9 -3t-9 -1q-7 -2 -12 -3t-9 -4 q0 3 -1 5t-1 4v6v8v8v9.5v11.5v4t2 6v5v5v4t2 6v5.5v5.5q0 4 1 9t3 11q8 4 15.5 9t15.5 10q8 4 16 9t17 11q12 8 23 15.5t24 15.5q12 6 24.5 13t24.5 15q24 15 51 26t53 19q7 3 13 4t12 1h7t5 2h7h6h9h11h4h6q2 -2 4 -2h4q41 -13 67 -33.5t34 -50.5q10 -31 15 -64t5 -67 v-381l131 -17v-35q-8 -4 -16 -7t-14 -5q-9 -2 -17 -4l-16 -4t-16.5 -4t-16.5 -2q-8 -2 -15 -4t-16 -4q-16 -5 -32.5 -9t-32.5 -8q-17 -2 -32 -5t-32 -7v4v102q-8 -8 -15 -13t-13 -9q-9 -4 -16 -8t-13 -9q-18 -12 -37.5 -23t-42.5 -22q-20 -10 -41.5 -16t-44.5 -6h-3h-3h-4 h-4q-33 0 -63.5 8t-57.5 23q-27 16 -40 41.5t-17 62.5zM199 887q0 -8 5 -23.5t17 -29.5q10 -15 26.5 -23t37.5 -10q4 -2 7 -2h5h7h5q23 0 42.5 5t39.5 13q10 4 19.5 9t19.5 10q8 6 18.5 11t18.5 11q2 0 4 1t4 3t4 3t4 3v4v207q-12 -8 -25.5 -14t-29.5 -10 q-16 -6 -32.5 -12.5t-33.5 -12.5q-26 -12 -52.5 -24.5t-51.5 -26.5t-39 -31.5t-18 -36.5v-3v-2v-2t-1 -2t-1 -2v-2v-2v-9z" />
<glyph unicode="&#xab;" horiz-adv-x="1138" d="M200 465v182l311 250v-170l-217 -170l217 -170v-170zM620 465v182l311 250v-170l-217 -170l217 -170v-170z" />
<glyph unicode="&#xac;" horiz-adv-x="750" d="M90 483v107h569v-107h-569z" />
<glyph unicode="&#xad;" horiz-adv-x="681" d="M94 492v147h487v-147h-487z" />
<glyph unicode="&#xae;" horiz-adv-x="1210" d="M100 565q0 225 136 389q135 161 329 180q20 1 40 1q200 0 345 -154q143 -150 159 -370q1 -22 1 -45q0 -231 -140 -395q-136 -161 -339 -174q-17 -2 -33 -2q-191 0 -335 152q-142 151 -160 364q-3 27 -3 54zM190 565q0 -194 120 -334q126 -141 290 -143q178 0 300 141 q120 139 120 337q0 196 -122 336q-120 139 -293 140q-171 0 -292 -139q-122 -138 -123 -338zM384 237v663h272q187 0 187 -187q0 -76 -43 -121l-29 -27q44 -32 53 -75q5 -28 7 -92q1 -91 18 -112q4 -6 13 -12v-37h-105q-20 52 -20 114l1 60q0 88 -60 100l-24 2h-177v-276 h-93zM477 607h170q94 13 99 100q0 86 -68 97l-31 2h-170v-199z" />
<glyph unicode="&#xaf;" horiz-adv-x="1140" d="M-13 1427v56h1165v-56h-1165z" />
<glyph unicode="&#xb0;" horiz-adv-x="819" d="M128 1214q0 57 22 107.5t60 88t88 59.5t107 22t108 -22t88.5 -59.5t59.5 -88t22 -107.5t-22 -107.5t-59.5 -88.5t-88.5 -60t-108 -22t-107 22t-88 59.5t-60 88t-22 108.5zM237 1214q0 -35 13 -66t36 -54t54 -36t66 -13q34 0 65 13.5t53.5 36.5t36 53.5t13.5 65.5 q0 34 -13.5 64.5t-36.5 54t-53.5 37t-64.5 13.5q-35 0 -65.5 -13.5t-53.5 -36.5t-36.5 -53.5t-13.5 -65.5z" />
<glyph unicode="&#xb1;" horiz-adv-x="1704" d="M252 41v115h1200v-115h-1200zM252 721v115h545v344h114v-344h541v-115h-541v-344h-114v344h-545z" />
<glyph unicode="&#xb2;" horiz-adv-x="864" d="M27 1345l11 24q2 6 3.5 10l3 8t4 9.5t7.5 13.5v2q11 17 20.5 29t19.5 21.5t21 17t26 16.5h-1q29 20 67 29.5t89 9.5q55 0 99 -15t77 -43q13 -11 27 -24.5t25.5 -31.5t18.5 -40.5t7 -52.5v-2q0 -29 -6 -51t-16.5 -41t-26.5 -37.5t-35 -40.5q-17 -18 -55 -52t-104 -87 q-22 -18 -44 -40t-41.5 -45t-34.5 -45.5t-23 -41.5h381v-65h-515q2 27 13 59t29.5 64.5t44 64t56.5 57.5q15 13 24.5 21.5t15.5 13.5t10 8l8 6l102 86v1q97 90 97 169q0 23 -7.5 47.5t-22.5 45.5q-41 47 -105 47q-30 0 -56 -9t-49 -31q-20 -20 -28 -51t-11 -57h-28 q-20 0 -44 6t-54 17z" />
<glyph unicode="&#xb3;" horiz-adv-x="866" d="M25 973q20 4 36.5 6.5t30.5 2.5q10 0 22.5 -1.5t27.5 -3.5q7 -35 19 -61t18 -32q8 -12 17.5 -19.5t14.5 -10.5q17 -11 33.5 -15t33.5 -4q56 0 102 46q41 41 41 114q0 83 -44 119v-1q-42 33 -101 33q-8 0 -16 -0.5t-16 -1.5l-30 -1v64q82 0 127 33q25 18 35.5 42.5 t10.5 59.5q0 61 -31 92q-39 36 -80 36q-13 0 -28.5 -5.5t-32.5 -14.5q-16 -8 -31 -29q-16 -22 -23 -55l-6 -41q-14 -2 -21.5 -2.5t-13.5 -0.5q-20 0 -39.5 8t-42.5 22q14 45 36 79.5t50 58.5q25 20 64 32.5t88 12.5q50 0 88 -15t70 -41q73 -61 73 -139q0 -41 -26 -82v1 q-5 -8 -10 -15t-12.5 -14.5t-19 -16t-28.5 -18.5l-5 -5t-8 -5q5 -3 10 -5t9 -4l22 -12t20 -11t15 -9t7 -5l-1 1q16 -14 27 -27t18 -29t10.5 -36t5.5 -46v-2q0 -48 -17.5 -88.5t-57.5 -75.5q-72 -66 -188 -66q-46 0 -80 8t-59 22t-43 32.5t-31 39.5q-9 14 -19 42t-21 59z" />
<glyph unicode="&#xb4;" horiz-adv-x="0" d="M-469 1178l128 272h232l-224 -272h-136z" />
<glyph unicode="&#xb5;" horiz-adv-x="1120" d="M-72 -314q0 34 6.5 70t16 72t20 71.5t19.5 69.5q21 81 43 163.5t39 165.5q5 26 10 48t10 43l109 516h147q-28 -126 -47 -213t-31.5 -144.5t-19 -89t-10 -47.5t-4 -20t-0.5 -6q-4 -19 -5.5 -38t-1.5 -39q0 -35 7.5 -68.5t25 -59t46.5 -41t73 -15.5q66 0 110 20t73 62 t49 86.5t32 96.5q2 2 29 130.5t82 385.5h151l-114 -529q-3 -16 -7.5 -30t-8 -28.5t-6 -31t-2.5 -35.5q0 -24 4.5 -46.5t15 -40t28 -28t43.5 -10.5q44 0 75 22t52 58q9 15 16.5 38t17 45.5t22 38.5t30.5 16q15 0 15 -25q0 -12 -3 -27t-7 -29l-7 -24.5t-4 -13.5 q-17 -67 -57 -125q-31 -45 -76.5 -71.5t-99.5 -26.5q-39 0 -70.5 13.5t-53 36.5t-33.5 55t-12 68q0 18 3 38q-18 -47 -43.5 -86t-59 -66.5t-76.5 -43t-96 -15.5q-105 0 -157.5 51t-71.5 155q-13 -66 -26.5 -143t-20.5 -154q-3 -38 -6.5 -84.5t-14 -91t-32.5 -79.5t-62 -50 q-35 0 -54.5 23.5t-19.5 56.5z" />
<glyph unicode="&#xb6;" horiz-adv-x="1165" d="M100 887q0 113 103 182q102 71 309 71h553v-92h-127v-1048h-131v1048h-219v-1048h-127v645q-92 0 -152 18q-8 1 -16.5 4t-17.5 7q-10 3 -18.5 7t-18 9t-20.5 11.5t-26 15.5q-48 35 -70 75.5t-22 94.5zM240 890q0 -64 66 -108q67 -45 155 -45v311q-93 0 -158 -47 q-63 -47 -63 -111z" />
<glyph unicode="&#xb7;" horiz-adv-x="626" d="M205 682v223h223v-223h-223z" />
<glyph unicode="&#xb8;" horiz-adv-x="1024" d="M276 -369l31 76q35 -13 68.5 -27.5t70.5 -25.5q24 -5 49 -10t51 -5q28 0 50 7q29 6 44.5 29t15.5 51q0 19 -7 34q-10 36 -38 48t-60 12q-19 0 -37.5 -2.5t-34.5 -5.5v168h66v-93q31 6 61 6q45 0 85 -16.5t69 -56.5q14 -20 21 -42.5t7 -45.5q0 -27 -8.5 -53t-23.5 -48 t-36.5 -39t-47.5 -24q-23 -9 -46 -12.5t-46 -3.5q-41 0 -81 8.5t-81 19.5q-37 11 -72 24t-70 27z" />
<glyph unicode="&#xb9;" horiz-adv-x="860" d="M133 1255v82q50 16 123 74q32 25 54.5 53.5t39.5 60.5h85v-745h-120v558q-45 -28 -95 -50t-87 -33z" />
<glyph unicode="&#xba;" horiz-adv-x="815" d="M51 1075q0 78 21.5 139.5t64.5 110.5t105.5 77t144.5 34h4h4h4t4 2h7h4h4q82 0 145.5 -27t108.5 -80q47 -51 69.5 -115.5t22.5 -140.5t-22.5 -139.5t-65.5 -114.5q-45 -51 -108.5 -76.5t-147.5 -27.5v4q-90 -4 -158.5 19.5t-116.5 72.5q-47 49 -70.5 114.5t-23.5 147.5z M190 1100q0 -2 3 -4v-3v-2v-2.5v-3.5v-3v-2v-2v-3q0 -12 2 -24.5t4 -24.5q2 -14 5 -26.5t5 -24.5q10 -41 25.5 -78t39.5 -72q25 -32 61 -48.5t85 -16.5h4h4h4h4v4q47 2 80 18.5t53 48.5q21 33 33 69t19 75v9t2 9v9.5v9.5v9t2 11v9.5v9.5v7v5v7v5v9.5v11.5q-2 4 -2 10v12 q-2 10 -3.5 21.5t-3.5 23.5q-8 43 -23 82t-40 76q-25 35 -61.5 53.5t-90.5 18.5h-3h-2t-28.5 -1t-66.5 -20.5t-61 -56.5q-21 -37 -33 -78t-14 -84q-3 -6 -3 -11v-9v-9v-8v-5v-7v-4z" />
<glyph unicode="&#xbb;" horiz-adv-x="1138" d="M200 217v170l221 170l-221 170v170l315 -248v-182zM608 217v170l221 170l-221 170v170l315 -248v-182z" />
<glyph unicode="&#xbc;" horiz-adv-x="1708" d="M107 1174v123q30 9 66 28.5t72 45t68.5 55t54.5 58.5h108v-751h-145v554q-103 -82 -224 -113zM252 -56l1102 1547h156l-1107 -1547h-151zM1047 123v123l405 474h122v-489h104v-108h-104v-153h-144v153h-383zM1200 231h230v263z" />
<glyph unicode="&#xbd;" horiz-adv-x="1708" d="M107 1174v123q30 9 66 28.5t72 45t68.5 55t54.5 58.5h108v-751h-145v554q-103 -82 -224 -113zM228 -56l1101 1547h157l-1105 -1547h-153zM1049 -30q8 69 71 143t183 160q80 57 122.5 90.5t61.5 54.5t21.5 36.5t2.5 37.5q0 48 -34.5 78.5t-103.5 30.5q-33 0 -57 -5 t-41.5 -18t-30.5 -35t-23 -55l-151 15q15 56 39.5 97t61.5 67.5t87.5 39.5t117.5 13q75 0 130 -16t91 -43.5t53.5 -64.5t17.5 -79q0 -40 -7.5 -72t-34.5 -67.5t-79.5 -80.5t-141.5 -111q-47 -35 -75.5 -58.5t-43.5 -37.5h386v-120h-623z" />
<glyph unicode="&#xbe;" horiz-adv-x="1708" d="M33 929l146 15q22 -65 61.5 -88.5t92.5 -23.5q35 0 64 10.5t49.5 28.5t32 42t11.5 52q0 50 -36 80t-120 30q-50 -3 -58 -3l22 110q81 0 118.5 28.5t37.5 73.5q0 37 -29.5 63t-89.5 26q-56 0 -87.5 -22t-54.5 -80l-143 23q21 53 45.5 89.5t58 59t78 32t104.5 9.5 q72 0 124 -14.5t85.5 -39.5t49.5 -59.5t16 -73.5q0 -55 -35.5 -98t-102.5 -62q91 -22 132 -72t41 -119q0 -47 -20.5 -88.5t-59.5 -73.5t-95.5 -50.5t-128.5 -18.5q-140 0 -214 55.5t-95 158.5zM252 -56l1101 1547h157l-1101 -1547h-157zM1047 123v123l404 474h123v-489h104 v-108h-104v-153h-145v153h-382zM1200 231h229v263z" />
<glyph unicode="&#xbf;" d="M106 379q22 8 37.5 13.5t32 8.5t37.5 5t53 4q10 -69 37 -123t66.5 -91.5t90 -57.5t109.5 -20q61 0 115 24t94.5 63t64 88.5t23.5 101.5q0 51 -21.5 92t-54.5 77t-72.5 70.5t-75.5 72.5q-51 54 -88.5 128.5t-63.5 161.5v108h142q0 -59 17 -130q6 -23 9.5 -39.5t8.5 -30 t13.5 -26t24 -29t40.5 -39t63 -55.5q60 -52 101.5 -97t67 -88.5t37 -88.5t11.5 -96q0 -87 -35 -158t-96.5 -121.5t-145 -78.5t-179.5 -28q-91 0 -159 12.5t-121 52t-96.5 114.5t-86.5 200zM482 1288v174h175v-174h-175z" />
<glyph unicode="&#xc0;" horiz-adv-x="1366" d="M115 0l532 1493h246l525 -1493h-213l-154 449h-576l-157 -449h-203zM411 1916h231l197 -304h-123zM523 608h475l-230 680z" />
<glyph unicode="&#xc1;" horiz-adv-x="1366" d="M115 0l532 1493h246l525 -1493h-213l-154 449h-576l-157 -449h-203zM523 608h475l-230 680zM688 1578l128 272h232l-224 -272h-136z" />
<glyph unicode="&#xc2;" horiz-adv-x="1366" d="M115 0l532 1493h246l525 -1493h-213l-154 449h-576l-157 -449h-203zM435 1571l216 280h192l225 -280h-204l-110 170l-113 -170h-206zM523 608h475l-230 680z" />
<glyph unicode="&#xc3;" horiz-adv-x="1366" d="M115 0l532 1493h246l525 -1493h-213l-154 449h-576l-157 -449h-203zM417 1579q-1 104 57 166q57 62 146 62q62 0 169 -54q59 -30 94 -30q32 0 49 17.5t24 69.5h130q-3 -114 -57.5 -171t-138.5 -57q-63 0 -166 56q-67 36 -98 36q-34 0 -55 -24q-22 -24 -21 -71h-133z M523 608h475l-230 680z" />
<glyph unicode="&#xc4;" horiz-adv-x="1366" d="M115 0l532 1493h246l525 -1493h-213l-154 449h-576l-157 -449h-203zM477 1579v165h165v-165h-165zM523 608h475l-230 680zM873 1579v165h165v-165h-165z" />
<glyph unicode="&#xc5;" horiz-adv-x="1366" d="M115 0l532 1493h246l525 -1493h-213l-154 449h-576l-157 -449h-203zM523 608h475l-230 680zM567 1641q0 38 15 71.5t40.5 59t59 40t71.5 14.5t72 -14.5t59.5 -40t40 -59t14.5 -71.5q0 -39 -14.5 -72.5t-40 -59t-59.5 -40.5t-72 -15t-71.5 15t-59 40t-40.5 59t-15 73z M640 1641q0 -24 9 -44.5t24.5 -36t36 -24.5t44.5 -9q22 0 43 9.5t36 24.5t24 35.5t9 44.5q0 22 -9 42.5t-24.5 36.5t-36 25t-42.5 9q-24 0 -44.5 -9t-35.5 -24.5t-24.5 -36t-9.5 -43.5z" />
<glyph unicode="&#xc6;" horiz-adv-x="1753" d="M18 0l728 1450h901v-142h-612v-494h505v-142h-505v-530h645v-142h-812v672h-328l-327 -672h-195zM609 814h259v523l-12 -17z" />
<glyph unicode="&#xc7;" horiz-adv-x="1479" d="M115 729q0 375 209 602q168 187 473 187q487 0 575 -488h-194q-31 154 -109 225q-110 91 -295 95q-262 0 -387 -236q-82 -153 -82 -383q0 -348 195 -510q121 -100 291 -100q223 0 328 158q12 16 20 34q45 86 68 232h196q-67 -592 -614 -592q-289 0 -457 174 q-217 223 -217 602zM550 -369l31 76q35 -13 68.5 -27.5t70.5 -25.5q24 -5 49 -10t51 -5q28 0 50 7q29 6 44.5 29t15.5 51q0 19 -7 34q-10 36 -38 48t-60 12q-19 0 -37.5 -2.5t-34.5 -5.5v168h66v-93q31 6 61 6q45 0 85 -16.5t69 -56.5q14 -20 21 -42.5t7 -45.5 q0 -27 -8.5 -53t-23.5 -48t-36.5 -39t-47.5 -24q-23 -9 -46 -12.5t-46 -3.5q-41 0 -81 8.5t-81 19.5q-37 11 -72 24t-70 27z" />
<glyph unicode="&#xc8;" horiz-adv-x="1366" d="M115 0v1493h1034v-168h-844v-477h814v-168h-814v-512h881v-168h-1071zM346 1916h231l197 -304h-123z" />
<glyph unicode="&#xc9;" horiz-adv-x="1366" d="M115 0v1493h1034v-168h-844v-477h814v-168h-814v-512h881v-168h-1071zM499 1578l128 272h232l-224 -272h-136z" />
<glyph unicode="&#xca;" horiz-adv-x="1366" d="M115 0v1493h1034v-168h-844v-477h814v-168h-814v-512h881v-168h-1071zM339 1570l216 280h192l225 -280h-204l-110 170l-113 -170h-206z" />
<glyph unicode="&#xcb;" horiz-adv-x="1366" d="M115 0v1493h1034v-168h-844v-477h814v-168h-814v-512h881v-168h-1071zM366 1579v165h165v-165h-165zM762 1579v165h165v-165h-165z" />
<glyph unicode="&#xcc;" horiz-adv-x="569" d="M37 1916h231l197 -304h-123zM269 0v1493h193v-1493h-193z" />
<glyph unicode="&#xcd;" horiz-adv-x="569" d="M115 1578l128 272h232l-224 -272h-136zM129 0v1493h193v-1493h-193z" />
<glyph unicode="&#xce;" horiz-adv-x="569" d="M-15 1570l216 280h192l225 -280h-204l-110 170l-113 -170h-206zM205 0v1493h193v-1493h-193z" />
<glyph unicode="&#xcf;" horiz-adv-x="569" d="M6 1578v165h165v-165h-165zM205 0v1493h193v-1493h-193zM402 1578v165h165v-165h-165z" />
<glyph unicode="&#xd0;" horiz-adv-x="1479" d="M44 650v150h126v650h607q133 0 239.5 -53t180.5 -149t114 -229.5t40 -294.5q0 -168 -40.5 -302t-116.5 -227.5t-185.5 -144t-247.5 -50.5h-591v650h-126zM345 150h383q104 0 186 39.5t138.5 114.5t86 183t29.5 245q0 136 -26 242t-76 178.5t-125 110t-172 37.5h-424v-500 h319v-150h-319v-500z" />
<glyph unicode="&#xd1;" horiz-adv-x="1479" d="M115 0v1493h207l780 -1221v1221h180v-1493h-215l-772 1210v-1210h-180zM366 1578q-1 104 57 166q57 62 146 62q62 0 169 -54q59 -30 94 -30q32 0 49 17.5t24 69.5h130q-3 -114 -57.5 -171t-138.5 -57q-63 0 -166 56q-67 36 -98 36q-34 0 -55 -24q-22 -24 -21 -71h-133z " />
<glyph unicode="&#xd2;" horiz-adv-x="1593" d="M115 782q0 377 227 596q195 187 492 187q356 0 555 -252l53 -78q115 -197 115 -465q0 -303 -168 -518q-41 -53 -90 -94q-187 -158 -463 -158q-342 0 -543 240q-178 213 -178 542zM305 782q0 -323 195 -493q137 -121 336 -121q264 0 412 205q118 161 118 401 q0 338 -200 508q-136 115 -332 115q-266 0 -414 -209q-115 -164 -115 -406zM522 1917h231l197 -304h-123z" />
<glyph unicode="&#xd3;" horiz-adv-x="1593" d="M115 782q0 377 227 596q195 187 492 187q356 0 555 -252l53 -78q115 -197 115 -465q0 -303 -168 -518q-41 -53 -90 -94q-187 -158 -463 -158q-342 0 -543 240q-178 213 -178 542zM305 782q0 -323 195 -493q137 -121 336 -121q264 0 412 205q118 161 118 401 q0 338 -200 508q-136 115 -332 115q-266 0 -414 -209q-115 -164 -115 -406zM767 1578l128 272h232l-224 -272h-136z" />
<glyph unicode="&#xd4;" horiz-adv-x="1593" d="M115 782q0 377 227 596q195 187 492 187q356 0 555 -252l53 -78q115 -197 115 -465q0 -303 -168 -518q-41 -53 -90 -94q-187 -158 -463 -158q-342 0 -543 240q-178 213 -178 542zM305 782q0 -323 195 -493q137 -121 336 -121q264 0 412 205q118 161 118 401 q0 338 -200 508q-136 115 -332 115q-266 0 -414 -209q-115 -164 -115 -406zM519 1570l216 280h192l225 -280h-204l-110 170l-113 -170h-206z" />
<glyph unicode="&#xd5;" horiz-adv-x="1593" d="M115 782q0 377 227 596q195 187 492 187q356 0 555 -252l53 -78q115 -197 115 -465q0 -303 -168 -518q-41 -53 -90 -94q-187 -158 -463 -158q-342 0 -543 240q-178 213 -178 542zM305 782q0 -323 195 -493q137 -121 336 -121q264 0 412 205q118 161 118 401 q0 338 -200 508q-136 115 -332 115q-266 0 -414 -209q-115 -164 -115 -406zM510 1579q-1 104 57 166q57 62 146 62q62 0 169 -54q59 -30 94 -30q32 0 49 17.5t24 69.5h130q-3 -114 -57.5 -171t-138.5 -57q-63 0 -166 56q-67 36 -98 36q-34 0 -55 -24q-22 -24 -21 -71h-133z " />
<glyph unicode="&#xd6;" horiz-adv-x="1593" d="M115 782q0 377 227 596q195 187 492 187q356 0 555 -252l53 -78q115 -197 115 -465q0 -303 -168 -518q-41 -53 -90 -94q-187 -158 -463 -158q-342 0 -543 240q-178 213 -178 542zM305 782q0 -323 195 -493q137 -121 336 -121q264 0 412 205q118 161 118 401 q0 338 -200 508q-136 115 -332 115q-266 0 -414 -209q-115 -164 -115 -406zM566 1579v165h165v-165h-165zM962 1579v165h165v-165h-165z" />
<glyph unicode="&#xd7;" horiz-adv-x="1196" d="M161 409l315 315l-314 314l122 122l314 -314l313 313l120 -121l-312 -313l314 -314l-122 -122l-314 314l-315 -315z" />
<glyph unicode="&#xd8;" horiz-adv-x="1593" d="M113 712q0 175 48 315.5t137.5 238.5t216 151t282.5 53q101 0 191 -26q85 -24 157 -68l64 89h237l-153 -213q58 -66 99 -147q42 -83 64.5 -180.5t22.5 -204.5q0 -171 -47 -308t-135.5 -233t-214.5 -147.5t-285 -51.5q-149 0 -275 54q-41 18 -78 40l-54 -74h-240l144 199 q-83 93 -130 219q-51 135 -51 294zM296 704q0 -128 34 -235q24 -74 63 -134l660 914q-23 15 -48 27q-92 44 -208 44q-114 0 -207 -45t-158 -126t-100.5 -194.5t-35.5 -250.5zM531 196q27 -17 57 -31q93 -43 209 -43t208.5 43t157 121.5t99 189t34.5 244.5q0 132 -35 242 q-26 84 -69 150z" />
<glyph unicode="&#xd9;" horiz-adv-x="1479" d="M115 484v1049h190v-1049q0 -239 226 -303q69 -20 155 -20q254 0 347 164q38 69 38 159v1049h191v-1049q0 -266 -213 -399q-148 -92 -363 -92q-338 0 -487 207q-84 119 -84 284zM361 1916h231l197 -304h-123z" />
<glyph unicode="&#xda;" horiz-adv-x="1479" d="M115 484v1049h190v-1049q0 -239 226 -303q69 -20 155 -20q254 0 347 164q38 69 38 159v1049h191v-1049q0 -266 -213 -399q-148 -92 -363 -92q-338 0 -487 207q-84 119 -84 284zM526 1579l128 272h232l-224 -272h-136z" />
<glyph unicode="&#xdb;" horiz-adv-x="1479" d="M115 484v1049h190v-1049q0 -239 226 -303q69 -20 155 -20q254 0 347 164q38 69 38 159v1049h191v-1049q0 -266 -213 -399q-148 -92 -363 -92q-338 0 -487 207q-84 119 -84 284zM366 1570l216 280h192l225 -280h-204l-110 170l-113 -170h-206z" />
<glyph unicode="&#xdc;" horiz-adv-x="1479" d="M115 484v1049h190v-1049q0 -239 226 -303q69 -20 155 -20q254 0 347 164q38 69 38 159v1049h191v-1049q0 -266 -213 -399q-148 -92 -363 -92q-338 0 -487 207q-84 119 -84 284zM413 1579v165h165v-165h-165zM809 1579v165h165v-165h-165z" />
<glyph unicode="&#xdd;" horiz-adv-x="1366" d="M99 1493h236l438 -727l426 727h227l-561 -907v-586h-191v586zM644 1578l128 272h232l-224 -272h-136z" />
<glyph unicode="&#xde;" horiz-adv-x="1180" d="M66 0v74l196 36v1168l-196 34v74h570v-74l-190 -34v-114h210l96 -8t94 -12t87 -30t79 -56q24 -24 43 -53t33 -63q12 -32 19 -67t9 -71v-4v-4v-4v-4q0 -30 -4 -59t-10 -57q-8 -28 -18 -54t-26 -48q-34 -58 -79 -99t-99 -65t-112 -36t-118 -12h-32t-32 2q-8 0 -16 1t-14 3 q-8 0 -16 1t-16 3l-8 74q14 -8 27 -11t27 -5t27 -2h27q62 0 113 19t93 57q40 38 61 93t23 129v7v5v7v7v8v8v4v6q-2 2 -2 4v4q-2 42 -14 84t-34 80q-20 40 -52 69t-74 47q-20 8 -39 14t-41 8q-10 2 -21 3t-21 1q-12 2 -23 2h-21h-5h-5h-6h-6h-11h-9q-12 -2 -23 -2h-21h-11h-9 q-6 -2 -11 -2h-9v-976l210 -36v-74h-590z" />
<glyph unicode="&#xdf;" horiz-adv-x="1192" d="M50 0v66l160 28v843q0 68 3.5 137t18.5 134.5t45 125t83 108.5q27 25 60.5 45t70 33.5t75 20.5t76.5 7h19q56 0 111.5 -20t100 -56t72 -86.5t27.5 -111.5v-15q0 -35 -10 -66.5t-26.5 -61t-37.5 -56t-43 -50.5q-16 -17 -34 -35t-34 -38t-26.5 -42.5t-10.5 -47.5v-2 q0 -20 7 -37.5t17.5 -33.5t24 -30t27.5 -27l8 -8q50 -45 101 -84.5t96 -90.5q22 -24 42 -52.5t35.5 -60.5t24.5 -65.5t9 -67.5v-11q0 -56 -20 -109.5t-55.5 -97t-84.5 -73t-106 -36.5q-23 -3 -46 -3q-44 0 -87.5 11t-79.5 33.5t-61 58t-32 84.5l44 28q6 -35 24 -63.5 t43.5 -49t56 -33.5t62.5 -16l14 -1q36 0 67.5 16.5t54.5 43.5t36.5 60.5t13.5 68.5v4q0 30 -8 61t-22 60.5t-32 56.5t-38 50q-50 51 -109.5 96.5t-110.5 96.5q-56 56 -56 126q0 23 7 45.5t21 43.5q22 31 47.5 59.5t51 56.5t48.5 58.5t38 66.5q18 42 27 81.5t9 81.5v16t-1 16 q-5 40 -25 75.5t-49.5 62t-67 41.5t-77.5 15h-11q-36 0 -70.5 -11t-63.5 -31.5t-51.5 -48.5t-33.5 -62q-18 -54 -25 -110t-7 -113v-1014l147 -28v-66h-474z" />
<glyph unicode="&#xe0;" d="M115 314q0 207 177 284q69 31 251 55q30 4 72 11q141 17 163 76q6 17 6 40v45q0 131 -156 155q-33 4 -70 4q-198 0 -231 -152q-4 -19 -6 -37h-162q6 146 70 221q105 124 335 124q339 0 376 -236q4 -25 4 -54v-625q0 -83 86 -83q17 0 35 4v-127q-68 -19 -110 -19 q-136 0 -162 128l-4 28q-167 -154 -343 -156q-212 0 -294 152q-37 71 -37 162zM282 318q0 -132 129 -162q31 -8 70 -8q139 0 239 96q62 58 64 137v190q-62 -29 -220 -52q-17 -2 -39 -6q-204 -31 -235 -140q-8 -24 -8 -55zM304 1516h231l197 -304h-123z" />
<glyph unicode="&#xe1;" d="M115 314q0 207 177 284q69 31 251 55q30 4 72 11q141 17 163 76q6 17 6 40v45q0 131 -156 155q-33 4 -70 4q-198 0 -231 -152q-4 -19 -6 -37h-162q6 146 70 221q105 124 335 124q339 0 376 -236q4 -25 4 -54v-625q0 -83 86 -83q17 0 35 4v-127q-68 -19 -110 -19 q-136 0 -162 128l-4 28q-167 -154 -343 -156q-212 0 -294 152q-37 71 -37 162zM282 318q0 -132 129 -162q31 -8 70 -8q139 0 239 96q62 58 64 137v190q-62 -29 -220 -52q-17 -2 -39 -6q-204 -31 -235 -140q-8 -24 -8 -55zM490 1178l128 272h232l-224 -272h-136z" />
<glyph unicode="&#xe2;" d="M115 314q0 207 177 284q69 31 251 55q30 4 72 11q141 17 163 76q6 17 6 40v45q0 131 -156 155q-33 4 -70 4q-198 0 -231 -152q-4 -19 -6 -37h-162q6 146 70 221q105 124 335 124q339 0 376 -236q4 -25 4 -54v-625q0 -83 86 -83q17 0 35 4v-127q-68 -19 -110 -19 q-136 0 -162 128l-4 28q-167 -154 -343 -156q-212 0 -294 152q-37 71 -37 162zM282 318q0 -132 129 -162q31 -8 70 -8q139 0 239 96q62 58 64 137v190q-62 -29 -220 -52q-17 -2 -39 -6q-204 -31 -235 -140q-8 -24 -8 -55zM284 1193l216 280h192l225 -280h-204l-110 170 l-113 -170h-206z" />
<glyph unicode="&#xe3;" d="M115 314q0 207 177 284q69 31 251 55q30 4 72 11q141 17 163 76q6 17 6 40v45q0 131 -156 155q-33 4 -70 4q-198 0 -231 -152q-4 -19 -6 -37h-162q6 146 70 221q105 124 335 124q339 0 376 -236q4 -25 4 -54v-625q0 -83 86 -83q17 0 35 4v-127q-68 -19 -110 -19 q-136 0 -162 128l-4 28q-167 -154 -343 -156q-212 0 -294 152q-37 71 -37 162zM246 1188q-1 104 57 166q57 62 146 62q62 0 169 -54q59 -30 94 -30q32 0 49 17.5t24 69.5h130q-3 -114 -57.5 -171t-138.5 -57q-63 0 -166 56q-67 36 -98 36q-34 0 -55 -24q-22 -24 -21 -71 h-133zM282 318q0 -132 129 -162q31 -8 70 -8q139 0 239 96q62 58 64 137v190q-62 -29 -220 -52q-17 -2 -39 -6q-204 -31 -235 -140q-8 -24 -8 -55z" />
<glyph unicode="&#xe4;" d="M115 314q0 207 177 284q69 31 251 55q30 4 72 11q141 17 163 76q6 17 6 40v45q0 131 -156 155q-33 4 -70 4q-198 0 -231 -152q-4 -19 -6 -37h-162q6 146 70 221q105 124 335 124q339 0 376 -236q4 -25 4 -54v-625q0 -83 86 -83q17 0 35 4v-127q-68 -19 -110 -19 q-136 0 -162 128l-4 28q-167 -154 -343 -156q-212 0 -294 152q-37 71 -37 162zM282 318q0 -132 129 -162q31 -8 70 -8q139 0 239 96q62 58 64 137v190q-62 -29 -220 -52q-17 -2 -39 -6q-204 -31 -235 -140q-8 -24 -8 -55zM308 1162v165h165v-165h-165zM704 1162v165h165 v-165h-165z" />
<glyph unicode="&#xe5;" d="M115 314q0 207 177 284q69 31 251 55q30 4 72 11q141 17 163 76q6 17 6 40v45q0 131 -156 155q-33 4 -70 4q-198 0 -231 -152q-4 -19 -6 -37h-162q6 146 70 221q105 124 335 124q339 0 376 -236q4 -25 4 -54v-625q0 -83 86 -83q17 0 35 4v-127q-68 -19 -110 -19 q-136 0 -162 128l-4 28q-167 -154 -343 -156q-212 0 -294 152q-37 71 -37 162zM282 318q0 -132 129 -162q31 -8 70 -8q139 0 239 96q62 58 64 137v190q-62 -29 -220 -52q-17 -2 -39 -6q-204 -31 -235 -140q-8 -24 -8 -55zM412 1333q0 38 15 71.5t40.5 59t59 40t71.5 14.5 t72 -14.5t59.5 -40t40 -59t14.5 -71.5q0 -39 -14.5 -72.5t-40 -59t-59.5 -40.5t-72 -15t-71.5 15t-59 40t-40.5 59t-15 73zM485 1333q0 -24 9 -44.5t24.5 -36t36 -24.5t44.5 -9q22 0 43 9.5t36 24.5t24 35.5t9 44.5q0 22 -9 42.5t-24.5 36.5t-36 25t-42.5 9q-24 0 -44.5 -9 t-35.5 -24.5t-24.5 -36t-9.5 -43.5z" />
<glyph unicode="&#xe6;" horiz-adv-x="1546" d="M49 236q0 132 56 212.5t174 107.5q26 6 42.5 9.5t30.5 6t29 5.5t38 8t57 13t87 21q42 10 68.5 15.5t39.5 7.5l4 18v127q-34 84 -84.5 122.5t-131.5 38.5q-103 0 -178.5 -60.5t-108.5 -172.5q-11 3 -20 5.5t-20 5.5t-27 6t-41 7q5 42 24.5 83t49 78t67.5 69t80.5 55.5 t88 36.5t89.5 13q49 0 95.5 -13t86.5 -36.5t71.5 -55.5t50.5 -70l7 10q53 77 127.5 121t163.5 44q91 0 168 -37.5t132 -101.5t86 -150t31 -182v-136h-692v-69q6 -40 19 -76q24 -66 65 -113.5t98 -74t122 -26.5q101 0 173 56.5t100 159.5q26 -10 51 -20l50 -20 q-16 -66 -51.5 -122t-84 -96.5t-108 -63t-123.5 -22.5q-91 0 -171 42t-140 114q-32 38 -57 84l-43 -80q-40 -44 -77 -74.5t-74.5 -49.5t-78 -27.5t-87.5 -8.5q-168 0 -246 62.5t-78 193.5zM171 248q0 -132 202 -132q48 0 87.5 15.5t74.5 40t67 56t66 64.5v128q-6 45 -6 92v1 q-16 -5 -47 -12.5t-70.5 -16t-83 -18t-83 -19.5t-71.5 -20t-48 -19q-88 -52 -88 -160zM790 603h570q0 69 -21.5 130.5t-60.5 107t-92.5 72.5t-117.5 27q-58 0 -110 -28.5t-90 -75.5t-61 -108q-12 -32 -17 -65v-60z" />
<glyph unicode="&#xe7;" horiz-adv-x="1024" d="M115 560q0 324 196 481q126 99 300 99q226 0 350 -138q8 -11 17 -20q62 -88 75 -229h-179q-29 196 -208 227l-57 4q-200 0 -274 -204q-35 -93 -35 -220q0 -278 169 -370q61 -34 144 -34q228 0 273 256h179q-23 -278 -245 -371q-91 -41 -211 -41q-274 0 -407 213 q-87 142 -87 347zM378 -369l31 76q35 -13 68.5 -27.5t70.5 -25.5q24 -5 49 -10t51 -5q28 0 50 7q29 6 44.5 29t15.5 51q0 19 -7 34q-10 36 -38 48t-60 12q-19 0 -37.5 -2.5t-34.5 -5.5v168h66v-93q31 6 61 6q45 0 85 -16.5t69 -56.5q14 -20 21 -42.5t7 -45.5q0 -27 -8.5 -53 t-23.5 -48t-36.5 -39t-47.5 -24q-23 -9 -46 -12.5t-46 -3.5q-41 0 -81 8.5t-81 19.5q-37 11 -72 24t-70 27z" />
<glyph unicode="&#xe8;" d="M115 564q0 320 189 477q120 99 293 99q231 0 361 -166q40 -51 65 -114q42 -111 42 -339h-775q1 -146 56 -227q87 -138 253 -138q204 0 275 213h168q-44 -245 -252 -332q-89 -37 -198 -37q-272 0 -399 223q-78 138 -78 341zM293 659h591q2 5 2 13q0 162 -118 253 q-77 59 -174 59q-170 0 -253 -152q-40 -73 -48 -173zM298 1516h231l197 -304h-123z" />
<glyph unicode="&#xe9;" d="M115 564q0 320 189 477q120 99 293 99q231 0 361 -166q40 -51 65 -114q42 -111 42 -339h-775q1 -146 56 -227q87 -138 253 -138q204 0 275 213h168q-44 -245 -252 -332q-89 -37 -198 -37q-272 0 -399 223q-78 138 -78 341zM293 659h591q2 5 2 13q0 162 -118 253 q-77 59 -174 59q-170 0 -253 -152q-40 -73 -48 -173zM484 1178l128 272h232l-224 -272h-136z" />
<glyph unicode="&#xea;" d="M115 564q0 320 189 477q120 99 293 99q231 0 361 -166q40 -51 65 -114q42 -111 42 -339h-775q1 -146 56 -227q87 -138 253 -138q204 0 275 213h168q-44 -245 -252 -332q-89 -37 -198 -37q-272 0 -399 223q-78 138 -78 341zM288 1189l216 280h192l225 -280h-204l-110 170 l-113 -170h-206zM293 659h591q2 5 2 13q0 162 -118 253q-77 59 -174 59q-170 0 -253 -152q-40 -73 -48 -173z" />
<glyph unicode="&#xeb;" d="M115 564q0 320 189 477q120 99 293 99q231 0 361 -166q40 -51 65 -114q42 -111 42 -339h-775q1 -146 56 -227q87 -138 253 -138q204 0 275 213h168q-44 -245 -252 -332q-89 -37 -198 -37q-272 0 -399 223q-78 138 -78 341zM293 659h591q2 5 2 13q0 162 -118 253 q-77 59 -174 59q-170 0 -253 -152q-40 -73 -48 -173zM326 1162v165h165v-165h-165zM722 1162v165h165v-165h-165z" />
<glyph unicode="&#xec;" horiz-adv-x="455" d="M-42 1516h231l197 -304h-123zM227 0v1054h128v-1054h-128z" />
<glyph unicode="&#xed;" horiz-adv-x="455" d="M151 1178l128 272h232l-224 -272h-136zM163 0v1054h128v-1054h-128z" />
<glyph unicode="&#xee;" horiz-adv-x="455" d="M-70 1191l216 280h192l225 -280h-204l-110 170l-113 -170h-206zM163 0v1054h128v-1054h-128z" />
<glyph unicode="&#xef;" horiz-adv-x="455" d="M-32 1163v165h165v-165h-165zM163 0v1054h128v-1054h-128zM364 1163v165h165v-165h-165z" />
<glyph unicode="&#xf0;" horiz-adv-x="1062" d="M68 468q0 61 10 122.5t33 117.5t60 103.5t91 82.5q61 39 129 58.5t141 19.5q56 0 111 -10.5t107 -31.5q-32 78 -61 156t-71 152l-246 -124l-36 74l234 120q-54 97 -128 180l62 62q97 -77 180 -190l210 108l32 -74l-192 -98q46 -76 87 -159t79 -171q47 -107 73.5 -220 t26.5 -230q0 -54 -6 -110t-21 -109t-39.5 -102t-61.5 -91q-29 -33 -65.5 -57t-77.5 -40.5t-84.5 -24.5t-86.5 -8q-66 0 -131 6.5t-123 35.5q-63 32 -108 81t-73.5 108.5t-41.5 127t-13 135.5zM249 517q0 -107 27.5 -210t79.5 -181q32 -48 86 -73t111 -25q58 0 110 26t81 80 q37 69 55 149t18 165q0 99 -24 194t-71 172q-32 52 -86 77.5t-114 25.5q-63 0 -120.5 -28t-87.5 -83q-34 -61 -49.5 -135.5t-15.5 -153.5z" />
<glyph unicode="&#xf1;" d="M115 0v1073h158v-180q110 174 266 203q41 8 90 8q215 0 301 -143q39 -66 39 -150v-811h-170v743q0 144 -121 193q-43 18 -100 18q-172 0 -248 -157q-43 -86 -43 -205v-592h-172zM209 1188q-1 104 57 166q57 62 146 62q62 0 169 -54q59 -30 94 -30q32 0 49 17.5t24 69.5 h130q-3 -114 -57.5 -171t-138.5 -57q-63 0 -166 56q-67 36 -98 36q-34 0 -55 -24q-22 -24 -21 -71h-133z" />
<glyph unicode="&#xf2;" d="M115 570q0 353 210 495q111 75 263 75q305 0 418 -261q59 -132 59 -317q0 -339 -204 -483q-113 -79 -271 -79q-289 0 -408 242q-67 135 -67 328zM266 1516h231l197 -304h-123zM289 570q0 -278 157 -375q61 -39 144 -39q181 0 259 179q42 95 42 229q0 294 -165 387 q-60 33 -136 33q-186 0 -263 -187q-38 -98 -38 -227z" />
<glyph unicode="&#xf3;" d="M115 570q0 353 210 495q111 75 263 75q305 0 418 -261q59 -132 59 -317q0 -339 -204 -483q-113 -79 -271 -79q-289 0 -408 242q-67 135 -67 328zM289 570q0 -278 157 -375q61 -39 144 -39q181 0 259 179q42 95 42 229q0 294 -165 387q-60 33 -136 33q-186 0 -263 -187 q-38 -98 -38 -227zM532 1178l128 272h232l-224 -272h-136z" />
<glyph unicode="&#xf4;" d="M115 570q0 353 210 495q111 75 263 75q305 0 418 -261q59 -132 59 -317q0 -339 -204 -483q-113 -79 -271 -79q-289 0 -408 242q-67 135 -67 328zM289 570q0 -278 157 -375q61 -39 144 -39q181 0 259 179q42 95 42 229q0 294 -165 387q-60 33 -136 33q-186 0 -263 -187 q-38 -98 -38 -227zM301 1190l216 280h192l225 -280h-204l-110 170l-113 -170h-206z" />
<glyph unicode="&#xf5;" d="M115 570q0 353 210 495q111 75 263 75q305 0 418 -261q59 -132 59 -317q0 -339 -204 -483q-113 -79 -271 -79q-289 0 -408 242q-67 135 -67 328zM268 1198q-1 104 57 166q57 62 146 62q62 0 169 -54q59 -30 94 -30q32 0 49 17.5t24 69.5h130q-3 -114 -57.5 -171 t-138.5 -57q-63 0 -166 56q-67 36 -98 36q-34 0 -55 -24q-22 -24 -21 -71h-133zM289 570q0 -278 157 -375q61 -39 144 -39q181 0 259 179q42 95 42 229q0 294 -165 387q-60 33 -136 33q-186 0 -263 -187q-38 -98 -38 -227z" />
<glyph unicode="&#xf6;" d="M115 570q0 353 210 495q111 75 263 75q305 0 418 -261q59 -132 59 -317q0 -339 -204 -483q-113 -79 -271 -79q-289 0 -408 242q-67 135 -67 328zM289 570q0 -278 157 -375q61 -39 144 -39q181 0 259 179q42 95 42 229q0 294 -165 387q-60 33 -136 33q-186 0 -263 -187 q-38 -98 -38 -227zM325 1164v165h165v-165h-165zM721 1164v165h165v-165h-165z" />
<glyph unicode="&#xf7;" horiz-adv-x="818" d="M31 492v147h487v-147h-487zM214 -40v213h213v-213h-213zM214 820v213h213v-213h-213z" />
<glyph unicode="&#xf8;" d="M105 512q0 111 35 212.5t96 179.5t144.5 124t180.5 46q44 0 87 -10l57 202h135l-71 -254q14 -8 27 -18q52 -37 94 -89t72 -114.5t46.5 -133t16.5 -145.5q0 -109 -35.5 -206t-98 -169.5t-147 -114.5t-183.5 -42q-41 0 -80 8l-56 -200h-136l69 247q-69 40 -122 102 q-61 73 -96 169.5t-35 205.5zM241 512q0 -82 27 -154t72 -126q27 -33 58 -57l214 760q-25 5 -51 5q-65 0 -123 -36.5t-101.5 -96.5t-69.5 -137t-26 -158zM518 119q21 -3 43 -3q68 0 128 32t104.5 86.5t70 126.5t25.5 151q0 85 -26 162.5t-71 136.5q-28 37 -62 64z" />
<glyph unicode="&#xf9;" d="M115 300v840h189v-772q0 -145 135 -194q50 -20 111 -20q194 0 280 163q46 87 46 206v617h189v-1140h-171v183q-127 -144 -296 -183h-103q-243 3 -337 148q-43 67 -43 152zM217 1516h231l197 -304h-123z" />
<glyph unicode="&#xfa;" d="M115 300v840h189v-772q0 -145 135 -194q50 -20 111 -20q194 0 280 163q46 87 46 206v617h189v-1140h-171v183q-127 -144 -296 -183h-103q-243 3 -337 148q-43 67 -43 152zM413 1178l128 272h232l-224 -272h-136z" />
<glyph unicode="&#xfb;" d="M115 300v840h189v-772q0 -145 135 -194q50 -20 111 -20q194 0 280 163q46 87 46 206v617h189v-1140h-171v183q-127 -144 -296 -183h-103q-243 3 -337 148q-43 67 -43 152zM227 1190l216 280h192l225 -280h-204l-110 170l-113 -170h-206z" />
<glyph unicode="&#xfc;" d="M115 300v840h189v-772q0 -145 135 -194q50 -20 111 -20q194 0 280 163q46 87 46 206v617h189v-1140h-171v183q-127 -144 -296 -183h-103q-243 3 -337 148q-43 67 -43 152zM258 1163v165h165v-165h-165zM654 1163v165h165v-165h-165z" />
<glyph unicode="&#xfd;" horiz-adv-x="1024" d="M88 1113h184l279 -835l301 835h186l-483 -1298q-46 -117 -119 -170q-70 -51 -162 -51q-63 0 -115 27v153q56 -12 91 -12q93 0 131 82q4 10 8 22l66 170zM448 1178l128 272h232l-224 -272h-136z" />
<glyph unicode="&#xfe;" horiz-adv-x="1062" d="M-12 -316l176 26v1688l-156 24v54q10 0 20 1t22 3l20 4l20 4l20 4t22 6l20 4l20 4q12 4 24 7t24 5q6 2 12 3t14 3q6 2 12 3t12 3l16 4l16 4q4 0 8 1t10 3q4 0 8 1t8 3v-8v-6q-2 -4 -2 -8v-8v-15v-15v-4v-4q-2 -2 -2 -4v-4v-8v-8v-8v-8v-8v-8v-606q6 2 13 8t15 12q4 4 8 7 t8 7l6 6t8 6q22 18 47 36t51 34t53 25t53 11h4h4h4t4 2h6h4h4q56 0 107 -18t97 -52q46 -36 78 -79t52 -95q6 -20 12 -41t10 -43q4 -20 7 -41t5 -43v-5t2 -7v-5v-7v-11v-9v-4v-4v-4v-4q-2 -80 -22 -153t-60 -143q-38 -68 -97 -116t-135 -74q-16 -6 -31 -9t-31 -3 q-14 -2 -29 -3t-31 -1q-14 0 -28 1t-28 3q-14 0 -28 2l-28 4q-14 4 -29 8t-29 8t-28 9t-28 11v-332l200 -26v-70h-544v70zM332 180q16 -18 32 -31t34 -25q16 -12 32 -21t32 -17q34 -14 64 -22t60 -8q52 0 96 22t78 66q34 46 52 110t20 148q0 88 -19 163t-59 141 q-38 66 -90 99t-118 33q-24 0 -49 -6t-53 -16q-26 -10 -55 -27t-57 -39v-570z" />
<glyph unicode="&#xff;" horiz-adv-x="1024" d="M88 1113h184l279 -835l301 835h186l-483 -1298q-46 -117 -119 -170q-70 -51 -162 -51q-63 0 -115 27v153q56 -12 91 -12q93 0 131 82q4 10 8 22l66 170zM288 1164v165h165v-165h-165zM684 1164v165h165v-165h-165z" />
<glyph unicode="&#x152;" horiz-adv-x="2048" d="M129 735q0 322 142 539t450 217q264 0 400 -223v198h831v-173h-650v-448h599v-172h-599v-500h681v-173h-862v212q-135 -237 -400 -237q-301 0 -456 232q-136 205 -136 528zM329 720q0 -303 115.5 -446t275.5 -143q161 0 275.5 142.5t114.5 471.5q0 306 -115.5 447.5 t-274.5 141.5q-101 0 -197 -65t-145 -197.5t-49 -351.5z" />
<glyph unicode="&#x153;" horiz-adv-x="1933" d="M82 518q0 170 58 302q58 133 178 200q120 66 266 66q139 0 240 -58q103 -57 154 -145q64 94 164 148.5t225 54.5q220 0 356 -151q134 -149 134 -445v-7h-784q3 -166 92 -263q88 -96 224 -96q100 0 171 55t103 167l180 -26q-43 -166 -160 -255t-297 -89q-135 0 -240 52.5 t-168 146.5q-152 -199 -396 -199q-225 0 -363 143q-137 143 -137 399zM267 533q0 -185 71 -283q91 -126 239 -126q130 0 221 106q92 107 92 305q0 197 -91 300q-90 103 -222 103q-87 0 -160 -49q-36 -24 -64 -61.5t-47 -83.5t-29 -100t-10 -111zM1080 631h587 q-12 150 -92 229q-80 78 -197 78q-121 0 -204 -82q-84 -84 -94 -225z" />
<glyph unicode="&#x178;" horiz-adv-x="1453" d="M99 1493h236l438 -727l426 727h227l-561 -907v-586h-191v586zM462 1576v165h165v-165h-165zM858 1576v165h165v-165h-165z" />
<glyph unicode="&#x2c6;" horiz-adv-x="682" d="M25 1194l216 280h192l225 -280h-204l-110 170l-113 -170h-206z" />
<glyph unicode="&#x2dc;" horiz-adv-x="682" d="M7 1219q-1 104 57 166q57 62 146 62q62 0 169 -54q59 -30 94 -30q32 0 49 17.5t24 69.5h130q-3 -114 -57.5 -171t-138.5 -57q-63 0 -166 56q-67 36 -98 36q-34 0 -55 -24q-22 -24 -21 -71h-133z" />
<glyph unicode="&#x2000;" horiz-adv-x="958" />
<glyph unicode="&#x2001;" horiz-adv-x="1917" />
<glyph unicode="&#x2002;" horiz-adv-x="958" />
<glyph unicode="&#x2003;" horiz-adv-x="1917" />
<glyph unicode="&#x2004;" horiz-adv-x="639" />
<glyph unicode="&#x2005;" horiz-adv-x="479" />
<glyph unicode="&#x2006;" horiz-adv-x="319" />
<glyph unicode="&#x2007;" horiz-adv-x="319" />
<glyph unicode="&#x2008;" horiz-adv-x="239" />
<glyph unicode="&#x2009;" horiz-adv-x="383" />
<glyph unicode="&#x200a;" horiz-adv-x="106" />
<glyph unicode="&#x2010;" horiz-adv-x="681" d="M94 492v147h487v-147h-487z" />
<glyph unicode="&#x2011;" horiz-adv-x="681" d="M94 492v147h487v-147h-487z" />
<glyph unicode="&#x2012;" horiz-adv-x="681" d="M94 492v147h487v-147h-487z" />
<glyph unicode="&#x2013;" d="M-4 458v145h1139v-145h-1139z" />
<glyph unicode="&#x2014;" horiz-adv-x="1706" d="M0 459v143h1706v-143h-1706z" />
<glyph unicode="&#x2018;" horiz-adv-x="455" d="M128 1011v165q0 74 10 125t30.5 86.5t51.5 59.5t73 44l44 -70q-41 -16 -64.5 -44t-38.5 -82l-7 -75h94v-209h-193z" />
<glyph unicode="&#x2019;" horiz-adv-x="455" d="M108 1072q37 14 62.5 44.5t39.5 81.5l8 74h-94v209h193v-165q0 -75 -10 -126t-30.5 -86t-51.5 -58.5t-73 -44.5z" />
<glyph unicode="&#x201a;" horiz-adv-x="455" d="M109 -201q18 8 32.5 17.5t27 23.5t23 34.5t19.5 51.5l6 74h-92v209h192v-166q0 -71 -9 -120.5t-29 -85t-51 -60.5t-76 -47z" />
<glyph unicode="&#x201c;" horiz-adv-x="682" d="M83 1011v165q0 74 10 125t30.5 86.5t51.5 59.5t73 44l44 -70q-41 -16 -64.5 -44t-38.5 -82l-7 -75h94v-209h-193zM393 1011v165q0 74 10 125t30.5 86.5t51.5 59.5t73 44l44 -70q-41 -16 -64.5 -44t-38.5 -82l-7 -75h94v-209h-193z" />
<glyph unicode="&#x201d;" horiz-adv-x="682" d="M71 1072q37 14 62.5 44.5t39.5 81.5l8 74h-94v209h193v-165q0 -75 -10 -126t-30.5 -86t-51.5 -58.5t-73 -44.5zM381 1072q37 14 62.5 44.5t39.5 81.5l8 74h-94v209h193v-165q0 -75 -10 -126t-30.5 -86t-51.5 -58.5t-73 -44.5z" />
<glyph unicode="&#x201e;" horiz-adv-x="682" d="M71 -199q54 22 80.5 69.5t29.5 129.5h-94v209h193v-165q0 -134 -31 -192q-44 -82 -134 -122zM381 -199q54 22 80.5 69.5t29.5 129.5h-94v209h193v-165q0 -134 -31 -192q-44 -82 -134 -122z" />
<glyph unicode="&#x2022;" horiz-adv-x="717" d="M109 719q0 49 19.5 95t54 80.5t80.5 55.5t99 21q52 0 98 -20.5t80.5 -55t55 -80t20.5 -96.5q0 -52 -20 -98.5t-54.5 -81t-80.5 -54.5t-99 -20q-49 0 -94.5 20t-81 54.5t-56.5 80.5t-21 99z" />
<glyph unicode="&#x2026;" horiz-adv-x="2048" d="M239 0v205h205v-205h-205zM922 0v205h205v-205h-205zM1604 0v205h206v-205h-206z" />
<glyph unicode="&#x202f;" horiz-adv-x="383" />
<glyph unicode="&#x2039;" horiz-adv-x="682" d="M92 527l315 457h149l-265 -457l265 -455h-149z" />
<glyph unicode="&#x203a;" horiz-adv-x="682" d="M92 72l265 458l-265 454h149l304 -448l-304 -464h-149z" />
<glyph unicode="&#x205f;" horiz-adv-x="479" />
<glyph unicode="&#x20ac;" d="M0 532v131h105v128l-105 -1v133h116q13 114 65.5 207.5t130.5 162.5t176.5 112.5t175 53t123.5 9.5q59 0 142 -13.5t178 -65.5l-40 -182q-66 54 -139 76t-141 23q-11 0 -57 -1.5t-122 -30t-137 -78.5t-102 -119t-50 -154h622l-17 -131h-621q-1 -13 -1 -34v-41 q0 -21 0.5 -36.5t0.5 -17.5h604l-18 -132h-565q6 -91 46 -161.5t102 -119.5t139.5 -75.5t122 -28t52.5 -1.5q72 1 145.5 23t135.5 73v-202q-103 -43 -174 -50.5t-106 -7.5q-71 -1 -155.5 14t-175.5 60.5t-161.5 114.5t-115.5 161t-54 201h-125z" />
<glyph unicode="&#x2122;" horiz-adv-x="2048" d="M225 1345v121h666v-121h-266v-694h-136v694h-264zM982 651v815h200l206 -651l199 651h196v-815h-124v684l-210 -684h-123l-219 694v-694h-125z" />
<glyph unicode="&#xe000;" horiz-adv-x="1075" d="M0 0v1075h1075v-1075h-1075z" />
</font>
</defs>
</svg>
